<?xml version="1.0" encoding="utf-8"?>
<!-- Generator: Adobe Illustrator 14.0.0, SVG Export Plug-In  -->
<!DOCTYPE svg PUBLIC "-//W3C//DTD SVG 1.0//EN" "http://www.w3.org/TR/2001/REC-SVG-20010904/DTD/svg10.dtd" [
	<!ENTITY ns_flows "http://ns.adobe.com/Flows/1.0/">
]>
<svg version="1.0"
	 xmlns="http://www.w3.org/2000/svg" xmlns:xlink="http://www.w3.org/1999/xlink" xmlns:a="http://ns.adobe.com/AdobeSVGViewerExtensions/3.0/"
	 x="0px" y="0px" width="1091px" height="207px" viewBox="-0.361 -0.097 1091 207" enable-background="new -0.361 -0.097 1091 207"
	 xml:space="preserve">
<defs>
</defs>
<polygon fill="#D11F2E" points="218.333,139.307 74.771,0 6.646,0 150.273,139.307 "/>
<polygon fill="#9D1A2F" points="219.063,139.976 219.063,206.037 287.123,206.037 "/>
<polygon fill="#6C6D70" points="224.979,66.729 293.834,0 212.417,0 143.562,66.729 "/>
<polygon fill="#6C6D70" points="68.79,139.307 0,206.037 81.417,206.037 150.273,139.307 "/>
<polygon fill-rule="evenodd" clip-rule="evenodd" points="432.811,164.964 410.477,164.964 382.83,117.44 355.248,164.964 
	333.115,164.964 372.461,101.422 335.64,41.076 357.773,41.076 382.83,85.406 408.02,41.076 430.153,41.076 393.396,101.422 "/>
<path fill-rule="evenodd" clip-rule="evenodd" d="M515.225,103.019c0-12.361-0.464-21.004-1.464-26.053
	c-0.928-5.053-2.924-9.171-6.046-12.361c-2.194-2.327-4.985-4.19-8.376-5.585c-3.456-1.395-6.913-2.061-10.566-2.061
	c-3.654,0-7.179,0.666-10.567,2.061c-3.391,1.396-6.182,3.259-8.441,5.585c-3.057,3.323-5.053,7.441-6.049,12.426
	c-0.931,4.984-1.463,13.627-1.463,25.988c0,6.581,0.133,11.826,0.334,15.752c0.198,3.92,0.597,7.38,1.194,10.3
	c0.532,2.921,1.266,5.251,2.061,6.848c0.867,1.662,2.129,3.524,3.924,5.511c2.324,2.401,5.183,4.258,8.506,5.653
	c3.391,1.331,6.848,1.992,10.502,1.992c7.71,0,14.022-2.524,18.942-7.646c2.126-2.188,3.723-4.712,4.784-7.503
	c1.064-2.855,1.794-6.711,2.194-11.566C515.026,117.505,515.225,111.06,515.225,103.019z M534.498,102.954
	c0,9.839-0.198,17.343-0.532,22.529c-0.399,5.186-1.46,10.041-3.19,14.558c-1.794,4.583-4.585,8.84-8.373,12.76
	c-9.171,8.775-20.338,13.228-33.631,13.228c-13.228,0-24.392-4.388-33.365-13.163c-3.988-3.985-6.844-8.243-8.574-12.696
	c-1.727-4.453-2.791-9.373-3.19-14.552c-0.464-5.257-0.665-12.761-0.665-22.6c0-7.51,0.133-13.491,0.334-17.947
	c0.198-4.384,0.662-8.441,1.395-12.16c0.73-3.658,1.928-7.114,3.589-10.304c1.662-3.19,3.985-6.312,7.11-9.437
	c8.974-8.772,20.137-13.16,33.365-13.16c13.292,0,24.459,4.388,33.631,13.16c3.855,3.988,6.711,8.243,8.373,12.695
	c1.73,4.518,2.791,9.369,3.19,14.62C534.3,85.672,534.498,93.182,534.498,102.954z"/>
<path fill-rule="evenodd" clip-rule="evenodd" d="M629.014,77.498c0-6.049-1.999-10.836-5.919-14.292
	c-3.921-3.521-9.171-5.248-15.753-5.248h-28.513v38.746h28.513c6.51,0,11.768-1.727,15.688-5.118
	C627.015,88.129,629.014,83.41,629.014,77.498z M652.205,164.964h-22.529l-26.786-52.106h-24.061v52.106h-19.472V41.076h49.445
	c7.775,0,14.694,1.528,20.743,4.585c5.978,3.122,10.632,7.376,13.89,12.894c3.188,5.449,4.849,11.696,4.849,18.742
	c0,8.509-2.395,15.62-7.042,21.334c-4.66,5.718-10.774,9.567-18.277,11.631L652.205,164.964z"/>
<path fill-rule="evenodd" clip-rule="evenodd" d="M759.409,127.877c-1.064,6.114-2.921,11.566-5.646,16.415
	c-2.727,4.783-5.984,8.769-9.97,11.962c-3.92,3.193-8.373,5.647-13.494,7.309c-5.121,1.597-10.501,2.466-16.284,2.466
	c-4.388,0-8.567-0.532-12.495-1.532c-3.92-1-7.704-2.46-11.3-4.518c-3.583-2.064-6.776-4.452-9.567-7.113
	c-3.984-3.985-6.847-8.243-8.573-12.696c-1.733-4.453-2.791-9.373-3.259-14.552c-0.396-5.257-0.597-12.761-0.597-22.6
	c0-7.51,0.136-13.491,0.331-17.947c0.201-4.384,0.662-8.441,1.396-12.16c0.733-3.658,1.928-7.114,3.589-10.304
	c1.662-3.19,3.985-6.312,7.113-9.437c4.388-4.255,9.438-7.578,15.085-9.771c5.581-2.259,11.695-3.388,18.277-3.388
	c11.969,0,21.938,3.323,29.974,9.901c8.048,6.582,13.162,16.019,15.421,28.247h-19.737c-1.525-6.513-4.453-11.696-8.841-15.483
	c-4.388-3.791-9.969-5.718-16.816-5.718c-3.72,0-7.179,0.666-10.502,1.928c-3.259,1.331-6.049,3.125-8.308,5.517
	c-1.727,1.794-2.986,3.657-3.921,5.449c-0.928,1.863-1.727,4.323-2.259,7.312c-0.597,3.057-0.999,6.448-1.194,10.236
	c-0.201,3.791-0.337,8.973-0.337,15.62c0,6.581,0.136,11.696,0.337,15.486c0.195,3.791,0.598,7.179,1.194,10.235
	c0.532,3.057,1.331,5.446,2.259,7.244c0.935,1.798,2.194,3.654,3.921,5.653c2.259,2.324,5.049,4.115,8.308,5.446
	c3.323,1.331,6.782,1.992,10.502,1.992c4.589,0,8.646-0.863,12.163-2.589c3.453-1.798,6.387-4.251,8.71-7.51
	c2.324-3.193,3.985-6.913,4.985-11.099H759.409z"/>
<path fill-rule="evenodd" clip-rule="evenodd" d="M849.07,103.019c0-12.361-0.468-21.004-1.467-26.053
	c-0.922-5.053-2.986-9.171-6.043-12.361c-2.193-2.327-4.984-4.19-8.444-5.585c-3.388-1.395-6.841-2.061-10.502-2.061
	c-3.647,0-7.179,0.666-10.566,2.061c-3.388,1.396-6.244,3.259-8.438,5.585c-3.058,3.323-5.114,7.441-6.05,12.426
	c-0.935,4.984-1.467,13.627-1.467,25.988c0,6.581,0.137,11.826,0.338,15.752c0.194,3.92,0.597,7.38,1.194,10.3
	c0.532,2.921,1.266,5.251,2.063,6.848c0.792,1.662,2.129,3.524,3.921,5.511c2.323,2.401,5.18,4.258,8.503,5.653
	c3.322,1.331,6.854,1.992,10.501,1.992c7.711,0,14.026-2.524,18.946-7.646c2.122-2.188,3.654-4.712,4.783-7.503
	c1.064-2.855,1.792-6.711,2.129-11.566C848.875,117.505,849.07,111.06,849.07,103.019z M868.347,102.954
	c0,9.839-0.201,17.343-0.597,22.529c-0.338,5.186-1.402,10.041-3.129,14.558c-1.791,4.583-4.582,8.84-8.372,12.76
	c-9.172,8.775-20.342,13.228-33.635,13.228c-13.228,0-24.392-4.388-33.361-13.163c-3.985-3.985-6.841-8.243-8.574-12.696
	c-1.727-4.453-2.791-9.373-3.251-14.552c-0.403-5.257-0.604-12.761-0.604-22.6c0-7.51,0.137-13.491,0.331-17.947
	c0.201-4.384,0.662-8.441,1.402-12.16c0.727-3.658,1.921-7.114,3.583-10.304c1.661-3.19,3.985-6.312,7.113-9.437
	c8.97-8.772,20.134-13.16,33.361-13.16c13.293,0,24.463,4.388,33.635,13.16c3.855,3.988,6.646,8.243,8.372,12.695
	c1.727,4.518,2.791,9.369,3.129,14.62C868.146,85.672,868.347,93.182,868.347,102.954z"/>
<path fill-rule="evenodd" clip-rule="evenodd" d="M964.446,102.22c0-7.111-0.064-12.627-0.324-16.548
	c-0.208-3.855-0.87-7.513-1.869-10.901c-0.993-3.388-2.519-6.182-4.583-8.373c-5.25-5.65-12.423-8.441-21.665-8.441h-23.327v90.119
	h23.327c9.308,0,16.486-2.791,21.665-8.308c2.992-3.252,4.92-7.64,5.647-13.157C964.122,121.03,964.446,112.923,964.446,102.22z
	 M983.724,102.155v6.25c0,6.646-0.26,12.488-0.728,17.472c-0.532,4.985-1.727,9.905-3.66,14.695c-1.856,4.849-4.712,9.1-8.503,12.76
	c-7.977,7.776-18.939,11.631-32.9,11.631h-44.727V41.076h44.727c13.961,0,24.924,3.852,32.9,11.631
	c3.791,3.654,6.646,7.776,8.503,12.426c1.934,4.589,3.128,9.239,3.66,14.026c0.468,4.719,0.728,10.3,0.728,16.749V102.155z"/>
<polygon fill-rule="evenodd" clip-rule="evenodd" points="1090,164.964 1008.582,164.964 1008.582,41.076 1090,41.076 1090,57.958 
	1028.054,57.958 1028.054,94.113 1080.965,94.113 1080.965,110.859 1028.054,110.859 1028.054,148.076 1090,148.076 "/>
</svg>
